<svg width="720" height="720" viewBox="0 0 720 720" xmlns="http://www.w3.org/2000/svg" fill="none" stroke="#c9a227" stroke-width="10" stroke-linecap="round" stroke-linejoin="round">
  <!-- PLACEHOLDER — pending art direction. Shankha / conch (ch 16–18). -->
  <path d="M390 415 C390 380 425 365 450 385 C480 410 472 458 438 475 C392 498 335 480 318 435 C296 380 340 320 405 316 C485 310 545 372 540 447 C535 532 455 587 370 577"/>
  <path d="M370 577 C330 573 300 560 278 540"/>
  <path d="M278 540 C230 575 175 580 135 558 L105 530"/>
  <path d="M135 558 C160 520 200 500 245 505"/>
</svg>
